<svg width="96" height="96" viewBox="0 0 96 96" fill="none" xmlns="http://www.w3.org/2000/svg">
<path d="M66.2037 13.4952H29.5797C24.9388 13.4952 21.1631 17.2709 21.1631 21.9118V67.3472C21.1631 71.9881 24.9393 75.7638 29.5797 75.7638H30.9848V82.5535L40.1461 78.2195L49.4081 82.6156V75.7633H66.2026C70.8435 75.7633 74.6192 71.9876 74.6192 67.3467V21.9126C74.6202 17.2712 70.844 13.4955 66.2037 13.4955V13.4952ZM45.454 76.3629L40.1493 73.8445L34.9384 76.3099V68.3144H45.454V76.3629ZM70.6663 67.3474C70.6663 69.8079 68.6643 71.8104 66.2033 71.8104L49.4074 71.8099V68.3138H66.6572C68.1203 68.3138 69.4874 67.9104 70.6659 67.2194L70.6663 67.3474ZM70.6663 60.3514C70.6663 62.5623 68.868 64.3601 66.6576 64.3601H29.1257V68.3137H30.9853V71.8097H29.5801C27.1196 71.8097 25.1171 69.8077 25.1171 67.3467V64.6692C25.1171 64.3698 25.1562 64.0794 25.2183 63.7982C25.6174 62.0057 27.215 60.6599 29.1258 60.6599H66.6563C68.1193 60.6599 69.4865 60.2565 70.665 59.5655L70.6655 60.3514L70.6663 60.3514ZM70.6663 43.9231V52.698C70.6663 54.9089 68.868 56.7067 66.6576 56.7067L42.1392 56.7073H29.1256C27.6626 56.7073 26.2954 57.1107 25.1169 57.8017V21.9114C25.1169 19.451 27.1189 17.4484 29.58 17.4484H66.204C68.6644 17.4484 70.667 19.4504 70.667 21.9114L70.6665 43.9229L70.6663 43.9231Z" fill="black"/>
<path d="M50.2111 24.8383H45.5701V32.1513H39.5439V36.7917H45.5701V48.9428H50.2111V36.7917H56.2368V32.1513H50.2111V24.8383Z" fill="black"/>
</svg>
