<svg width="832" height="831" viewBox="0 0 832 831" fill="none" xmlns="http://www.w3.org/2000/svg">
<g clip-path="url(#clip0_571_17558)">
<path d="M827.34 785.91L787.87 719.74C782.51 710.76 772.82 705.25 762.36 705.25H709.91C783.55 630.43 829 527.78 829 414.5C829 185.58 643.42 0 414.5 0C185.58 0 0 185.58 0 414.5C0 527.77 45.44 630.43 119.09 705.25H66.02C55.09 705.25 45.04 711.25 39.87 720.88L4.25 787.05C-6.4 806.84 7.93 830.83 30.4 830.83H801.83C824.88 830.83 839.15 805.71 827.34 785.92V785.91ZM796.64 825.76H35.59C13.42 825.76 2.28 803.82 12.79 785.71L44.92 725.17C50.03 716.37 59.94 710.87 70.72 710.87H133.34C133.28 710.81 133.23 710.76 133.17 710.7L127.89 705.57C52.98 631.63 6.54 528.89 6.54 415.3C6.54 190.03 189.16 7.41 414.43 7.41C639.7 7.41 822.32 190.03 822.32 415.3C822.32 528.88 775.89 631.61 700.98 705.57L695.73 710.67C695.66 710.74 695.58 710.81 695.51 710.88H704.27H757.7C768.02 710.88 777.58 715.91 782.87 724.13L818.81 784.67C830.46 802.78 819.39 825.76 796.64 825.76Z" fill="#FD9703"/>
<path d="M797.51 780.88L770.93 735.98C765.84 729.88 756.65 726.15 746.72 726.15H650.63C743.94 654.52 804.1 541.85 804.1 415.13C804.1 198.71 628.66 23.27 412.24 23.27C195.82 23.27 20.3799 198.71 20.3799 415.13C20.3799 541.85 80.5299 654.53 173.85 726.15H77.6899C67.3199 726.15 57.7799 730.22 52.8599 736.75L28.9399 781.65C15.0699 806.99 22.5499 811.35 43.8799 811.35H776.18C803.41 811.35 811.91 806.99 797.51 780.88ZM412.47 744.53L411.41 726.14C241.18 725.69 103.13 588.5 101.26 418.61L68.3799 416.6L101.21 415.05C101.25 243.83 239.65 104.95 410.69 104.12L412.47 70.47L414.02 104.12C584.97 105.08 723.27 243.94 723.27 415.12C723.27 415.29 723.27 415.46 723.27 415.63L742.45 416.59L723.23 418.27C721.54 588.2 583.59 725.51 413.4 726.13L412.47 744.52V744.53Z" fill="#FE9503"/>
<path d="M619.92 624.08L626.93 632.08C681.58 577.49 715.51 502.17 715.94 418.92L705.32 419.85C704.64 499.55 672.16 571.66 619.92 624.08Z" fill="#EFC954"/>
<path d="M414.19 710.24L413.66 720.86C496.77 720.52 572 686.8 626.62 632.39L618.68 625.32C566.13 677.44 493.94 709.77 414.2 710.24H414.19Z" fill="#EFC954"/>
<path d="M705.32 414.74L715.94 415.27C715.39 331.64 681.02 256.04 625.82 201.46L618.84 209.48C671.7 261.99 704.63 334.51 705.32 414.74Z" fill="#EFC954"/>
<path d="M204.86 624.04L197.62 630.5L204.04 623.2C152.28 570.82 120.14 499.04 119.5 419.74L108.88 419.09C109.83 585.49 244.65 720.16 411.11 720.86L410.5 710.24C330.16 709.72 257.5 676.88 204.88 624.05L204.86 624.04Z" fill="#EFC954"/>
<path d="M617.87 208.53L625.81 201.45C571.43 147.68 496.84 114.32 414.45 113.78L414.94 124.4C493.98 125.07 565.55 157.04 617.87 208.53Z" fill="#EFC954"/>
<path d="M205.25 210.18L198.27 202.16C143.61 256.56 109.58 331.65 108.88 414.69L119.5 414.19C120.33 334.54 152.93 262.5 205.25 210.18Z" fill="#EFC954"/>
<path d="M409.62 124.4L410.18 113.78C327.54 114.37 252.76 147.98 198.36 202.07L206.26 209.19C258.58 157.36 330.33 125.14 409.62 124.4Z" fill="#EFC954"/>
<path d="M578.6 243.51L612.07 213.69C561.26 163.86 491.9 132.91 415.29 132.14L417.35 176.89C479.87 178.15 536.53 203.26 578.6 243.51Z" fill="#FBC52F"/>
<path d="M652.82 412.1L697.58 414.35C696.79 336.61 664.91 266.32 613.76 215.33L584.31 249.17C625.6 291.38 651.47 348.72 652.82 412.1Z" fill="#FBC52F"/>
<path d="M585.24 584.5L614.8 618.24C665.28 567.39 696.72 497.63 697.57 420.52L652.77 424.43C650.96 486.58 625.57 542.81 585.24 584.49V584.5Z" fill="#FBC52F"/>
<path d="M406.85 176.9L409.21 132.14C332.37 132.98 262.82 164.21 212.02 214.38L245.31 244.38C287.34 203.76 344.12 178.32 406.85 176.89V176.9Z" fill="#FBC52F"/>
<path d="M239.8 249.89L210.35 216.04C159.73 266.86 128.17 336.66 127.25 413.83L172 411.72C173.44 348.85 199 291.95 239.8 249.89Z" fill="#FBC52F"/>
<path d="M172 422.95L127.24 420.21C128.01 497.01 159.11 566.53 209.16 617.37L238.77 583.67C198.58 541.73 173.44 485.27 172.01 422.95H172Z" fill="#FBC52F"/>
<path d="M320.24 639.48L320.09 639.79L320.19 639.46C291.63 627.59 265.86 610.38 244.11 589.07L210.64 618.89C261.74 670.04 332.17 701.85 410.03 702.49L407.44 657.73C376.6 657.11 347.18 650.67 320.24 639.48Z" fill="#FBC52F"/>
<path d="M416.83 657.74L414.58 702.5C491.87 701.92 561.84 670.61 612.88 620.16L579.39 590.35C537.12 631.15 479.95 656.6 416.83 657.74Z" fill="#FBC52F"/>
<path d="M324.34 517.58L250.4 583.47C271.1 603.65 295.54 620.01 322.61 631.38L351.11 535.89C341.44 530.88 332.46 524.72 324.34 517.59V517.58Z" fill="#F5EC79"/>
<path d="M498.23 315.12L572.31 249.11C551.62 229.44 527.31 213.55 500.48 202.54L469.91 296.85C480.14 301.74 489.64 307.9 498.22 315.12H498.23Z" fill="#F5EC79"/>
<path d="M531.93 357.9L626.09 326.61C614.78 300 598.64 275.94 578.77 255.52L513.65 330.37C520.82 338.71 526.97 347.95 531.93 357.9Z" fill="#F5EC79"/>
<path d="M367.54 543.03L323.95 631.93C349.63 642.53 377.62 648.66 406.96 649.33L401.23 550.3C389.5 549.33 378.2 546.84 367.53 543.03H367.54Z" fill="#F5EC79"/>
<path d="M422.45 284.23C433.54 285.05 444.25 287.24 454.42 290.61L500.31 202.47C474.75 192 446.92 185.96 417.75 185.3L422.29 284.22C422.34 284.22 422.4 284.23 422.45 284.24V284.23Z" fill="#F5EC79"/>
<path d="M539.08 459.42L625.87 508.02L532.53 475.52C527.62 485.63 521.47 495.02 514.28 503.51L579.69 578.16C618.12 538.2 642.37 484.5 644.34 425.16L544.84 433.85C543.75 442.66 541.8 451.21 539.08 459.4V459.42Z" fill="#F5EF72"/>
<path d="M472.53 536.49L500.14 632.23C527.45 621.07 552.17 604.86 573.11 584.75L499.05 518.82C490.98 525.71 482.09 531.66 472.53 536.49Z" fill="#F5EC79"/>
<path d="M545.45 406.71L644.42 411.68C643.71 381.73 637.32 353.18 626.29 327.07L537.92 371.86C541.91 382.87 544.49 394.56 545.45 406.71Z" fill="#F5EC79"/>
<path d="M292.74 476.44L197.83 505.86C208.86 532.56 224.71 556.75 244.32 577.34L309.87 502.73C303.18 494.71 297.42 485.89 292.74 476.44Z" fill="#F5EC79"/>
<path d="M422.23 550.41L417.25 649.34C446.36 648.74 474.15 642.78 499.68 632.41L455.02 543.82C444.61 547.33 433.62 549.58 422.23 550.41Z" fill="#F5EC79"/>
<path d="M286.5 372.33L197.76 328.94C187.25 354.44 181.14 382.21 180.4 411.32L279.3 406.66C280.18 394.71 282.66 383.2 286.5 372.33Z" fill="#F5EC79"/>
<path d="M279.51 429.53L180.4 423.46C181.15 452.12 187.1 479.48 197.33 504.65L285.52 458.77C282.47 449.43 280.42 439.64 279.51 429.53Z" fill="#F5EC79"/>
<path d="M310.28 330.91L245.33 256.24C225.49 276.82 209.42 301.04 198.22 327.82L293.1 356.87C297.81 347.53 303.59 338.82 310.29 330.91H310.28Z" fill="#F5EC79"/>
<path d="M352.26 297.83L321.79 203.58C295.55 214.72 271.79 230.55 251.55 250.01L324.89 316.11C333.18 308.94 342.37 302.79 352.25 297.83H352.26Z" fill="#F5EC79"/>
<path d="M401.18 284.21L406.4 185.3C376.76 186.05 348.5 192.37 322.62 203.23L368.02 291.16C378.54 287.5 389.65 285.11 401.18 284.21Z" fill="#F5EC79"/>
<path d="M402.51 244.73H420.51V358.73H518.51V376.73H420.51V570.73H402.51V377.73H303.51V358.73H402.51V244.73Z" fill="#FF135F"/>
<path d="M118.01 593.07L112.9 585.68C115.26 583.75 116.66 581.72 117.09 579.6C117.52 577.48 117.06 575.2 115.7 572.76C114.26 570.17 112.63 568.53 110.8 567.83C108.98 567.13 107.33 567.18 105.87 568C104.93 568.52 104.28 569.25 103.93 570.17C103.58 571.09 103.54 572.37 103.82 574.02C104.02 575.14 104.63 577.61 105.66 581.42C106.99 586.32 107.36 590.07 106.77 592.67C105.94 596.33 103.95 599.04 100.8 600.79C98.77 601.92 96.56 602.4 94.16 602.23C91.76 602.06 89.49 601.16 87.37 599.51C85.25 597.86 83.33 595.51 81.63 592.45C78.85 587.46 77.85 583.09 78.64 579.35C79.42 575.61 81.61 572.66 85.19 570.5L90.01 578.33C88.16 579.81 87.1 581.37 86.83 583C86.56 584.63 87.06 586.57 88.32 588.83C89.62 591.16 91.11 592.72 92.81 593.51C93.9 594.02 94.96 593.98 95.99 593.41C96.93 592.89 97.51 592.04 97.74 590.87C98.03 589.38 97.54 586.43 96.29 582.01C95.04 577.59 94.38 574.17 94.33 571.75C94.27 569.33 94.81 567.12 95.93 565.11C97.05 563.1 98.87 561.4 101.38 560C103.66 558.73 106.15 558.18 108.84 558.34C111.53 558.5 114.01 559.47 116.26 561.24C118.52 563.02 120.61 565.63 122.53 569.09C125.33 574.12 126.32 578.63 125.49 582.61C124.67 586.6 122.17 590.09 118.02 593.09L118.01 593.07Z" fill="white"/>
<path d="M108.47 542.49L100.43 545.87L97.0498 537.83L105.09 534.45L108.47 542.49Z" fill="white"/>
<path d="M100.04 522.07L56.5099 535.39L47.3799 505.55L54.7399 503.3L61.1799 524.35L71.4799 521.2L65.9199 503.03L73.2799 500.78L78.8399 518.95L97.3399 513.29L100.03 522.08L100.04 522.07Z" fill="white"/>
<path d="M90.1498 487.3L81.6198 489.14L79.7798 480.61L88.3098 478.77L90.1498 487.3Z" fill="white"/>
<path d="M84.42 388.84L46.82 384.79L45.37 398.22L37.71 397.4L41.58 361.44L49.24 362.26L47.8 375.66L85.4 379.71L84.42 388.85V388.84Z" fill="white"/>
<path d="M88.5198 356.43L44.2598 345.82L48.7698 327.01C49.8998 322.28 51.1298 318.94 52.4298 316.99C53.7398 315.04 55.5598 313.66 57.9098 312.86C60.2598 312.06 62.7298 311.97 65.3498 312.6C68.6698 313.4 71.1798 315.03 72.8798 317.5C74.5798 319.97 75.2398 323.22 74.8698 327.24C76.4598 325.58 78.0798 324.28 79.7298 323.34C81.3798 322.4 84.1798 321.28 88.1398 319.98L98.0698 316.65L95.5098 327.34L84.3298 331.49C80.3398 332.96 77.7898 334.01 76.6898 334.64C75.5898 335.27 74.7598 336.02 74.1998 336.89C73.6398 337.76 73.1198 339.22 72.6198 341.27L72.1898 343.08L90.6698 347.51L88.5298 356.45L88.5198 356.43ZM65.1198 341.37L66.6998 334.76C67.7298 330.47 68.1898 327.75 68.0798 326.6C67.9698 325.45 67.5498 324.46 66.8098 323.64C66.0698 322.82 65.0298 322.26 63.7098 321.94C62.2198 321.58 60.9198 321.69 59.8198 322.27C58.7098 322.85 57.8598 323.83 57.2798 325.22C56.9998 325.92 56.4298 328.08 55.5698 331.71L53.8998 338.68L65.1298 341.37H65.1198Z" fill="white"/>
<path d="M58.7197 291.44L62.1297 282.91L85.0197 292.07C88.6497 293.52 91.0497 294.36 92.2097 294.58C94.0897 294.91 95.8197 294.59 97.4197 293.64C99.0197 292.69 100.29 291.02 101.25 288.63C102.22 286.21 102.46 284.19 101.96 282.56C101.46 280.93 100.54 279.71 99.1997 278.88C97.8597 278.05 95.5197 276.97 92.1697 275.63L68.7897 266.27L72.2097 257.74L94.4097 266.62C99.4797 268.65 102.98 270.32 104.89 271.62C106.8 272.92 108.23 274.48 109.17 276.29C110.11 278.11 110.6 280.22 110.62 282.64C110.64 285.06 109.99 287.94 108.65 291.28C107.03 295.32 105.34 298.19 103.58 299.9C101.81 301.61 99.9397 302.78 97.9697 303.39C95.9997 304.01 94.1197 304.18 92.3297 303.91C89.6897 303.5 85.9997 302.35 81.2697 300.45L58.7297 291.43L58.7197 291.44Z" fill="white"/>
<path d="M120.46 262.56L81.2197 239.5L98.3197 210.4L104.96 214.3L92.5197 235.47L101.22 240.58L112.8 220.88L119.41 224.77L107.83 244.47L118.51 250.75L131.39 228.83L138 232.71L120.46 262.56Z" fill="white"/>
<path d="M190 173.87L161.92 138.52L169.12 132.8L192.43 162.14L210.32 147.92L215.09 153.92L190 173.85V173.87Z" fill="white"/>
<path d="M224.07 148.36L199.54 110.02L207.28 105.07L231.81 143.41L224.07 148.36Z" fill="white"/>
<path d="M254.29 111.93L250.89 105.05L268.65 96.2799L276.68 112.54C275.78 115.06 274.01 117.77 271.36 120.66C268.71 123.55 265.71 125.82 262.35 127.48C258.08 129.59 253.92 130.53 249.86 130.31C245.8 130.09 242.15 128.7 238.91 126.16C235.67 123.62 233.08 120.39 231.15 116.47C229.05 112.22 228.08 108 228.23 103.82C228.38 99.6399 229.74 95.8199 232.3 92.3599C234.25 89.7099 237.17 87.4299 241.07 85.4999C246.14 82.9999 250.62 82.0999 254.52 82.8199C258.42 83.5399 261.7 85.5699 264.37 88.9099L256.94 94.4899C255.37 92.7699 253.51 91.7199 251.35 91.3499C249.19 90.9699 246.92 91.3699 244.55 92.5499C240.95 94.3299 238.65 96.8799 237.65 100.22C236.65 103.55 237.26 107.46 239.48 111.96C241.87 116.8 244.74 119.9 248.09 121.26C251.44 122.62 254.86 122.44 258.35 120.71C260.08 119.86 261.64 118.66 263.04 117.13C264.44 115.6 265.52 114.04 266.29 112.46L263.73 107.28L254.29 111.94V111.93Z" fill="white"/>
<path d="M291.09 113.63L276.54 70.5L285.25 67.56L290.98 84.54L308.04 78.78L302.31 61.81L311.02 58.87L325.57 102L316.86 104.94L310.5 86.08L293.44 91.84L299.8 110.7L291.09 113.64V113.63Z" fill="white"/>
<path d="M348.92 96.22L340.57 59.34L327.4 62.32L325.7 54.81L360.98 46.83L362.68 54.34L349.54 57.31L357.89 94.19L348.93 96.22H348.92Z" fill="white"/>
<path d="M455.13 44.85L473.07 47.9C476.62 48.5 479.24 49.1 480.94 49.69C482.63 50.28 484.09 51.17 485.31 52.34C486.53 53.51 487.46 54.96 488.12 56.68C488.77 58.4 488.93 60.22 488.6 62.16C488.24 64.26 487.35 66.09 485.92 67.66C484.49 69.22 482.73 70.28 480.64 70.83C483.24 72.09 485.11 73.81 486.25 75.97C487.39 78.13 487.74 80.52 487.3 83.11C486.95 85.15 486.14 87.05 484.86 88.82C483.58 90.59 482.03 91.91 480.19 92.78C478.35 93.65 476.21 94.02 473.75 93.88C472.21 93.79 468.55 93.27 462.77 92.33L447.5 89.73L455.12 44.86L455.13 44.85ZM459.89 71.7L457.85 83.7L466.24 85.12C469.5 85.68 471.59 85.93 472.5 85.9C473.89 85.88 475.09 85.47 476.09 84.67C477.1 83.86 477.74 82.67 478.01 81.07C478.24 79.72 478.11 78.53 477.61 77.47C477.12 76.42 476.29 75.58 475.13 74.94C473.97 74.3 471.33 73.63 467.2 72.93L459.88 71.69L459.89 71.7ZM462.92 53.85L461.16 64.23L467.1 65.24C470.63 65.84 472.83 66.16 473.71 66.2C475.29 66.28 476.6 65.95 477.64 65.21C478.68 64.47 479.32 63.38 479.57 61.93C479.81 60.54 479.61 59.35 479 58.35C478.38 57.35 477.33 56.63 475.85 56.19C474.97 55.94 472.4 55.45 468.13 54.72L462.93 53.84L462.92 53.85Z" fill="white"/>
<path d="M534.07 114.27L524.72 110.74L524.66 99.6599L507.64 93.2299L500.47 101.58L491.35 98.1299L524.02 61.8099L533.11 65.2399L534.08 114.26L534.07 114.27ZM524.6 91.4399L524.7 73.4199L512.98 87.0499L524.6 91.4399Z" fill="white"/>
<path d="M542.02 118.36L563.32 78.14L576.35 85.04C581.29 87.66 584.4 89.56 585.69 90.76C587.68 92.58 588.91 94.92 589.39 97.76C589.87 100.6 589.27 103.63 587.57 106.83C586.26 109.3 584.71 111.14 582.93 112.35C581.14 113.56 579.3 114.28 577.41 114.51C575.52 114.74 573.78 114.63 572.19 114.19C570.05 113.55 567.14 112.25 563.46 110.3L558.17 107.5L550.13 122.67L542.01 118.37L542.02 118.36ZM567.84 89.24L561.79 100.65L566.23 103C569.43 104.69 571.68 105.62 572.98 105.77C574.28 105.92 575.48 105.71 576.56 105.14C577.65 104.57 578.51 103.69 579.14 102.5C579.91 101.04 580.12 99.6 579.77 98.2C579.42 96.8 578.64 95.62 577.45 94.69C576.58 93.99 574.68 92.87 571.75 91.32L567.83 89.24H567.84Z" fill="white"/>
<path d="M591.24 146.7L612.62 115.51L601.48 107.87L605.83 101.52L635.67 121.97L631.32 128.32L620.2 120.7L598.82 151.89L591.24 146.7Z" fill="white"/>
<path d="M617.64 166.04L646.58 130.91L653.67 136.75L624.73 171.88L617.64 166.04Z" fill="white"/>
<path d="M643.7 168.16L650.61 173.9C648.86 176.4 648.06 178.72 648.22 180.88C648.38 183.04 649.44 185.11 651.41 187.1C653.49 189.2 655.51 190.35 657.45 190.53C659.4 190.71 660.96 190.22 662.16 189.04C662.92 188.28 663.35 187.41 663.44 186.43C663.53 185.45 663.22 184.2 662.51 182.69C662.02 181.66 660.76 179.46 658.74 176.07C656.14 171.71 654.77 168.2 654.64 165.54C654.45 161.79 655.64 158.65 658.19 156.12C659.84 154.49 661.84 153.43 664.2 152.94C666.56 152.45 668.98 152.72 671.47 153.73C673.96 154.74 676.44 156.49 678.9 158.98C682.92 163.04 685.06 166.97 685.31 170.79C685.56 174.6 684.26 178.04 681.39 181.08L674.63 174.84C676.01 172.91 676.62 171.13 676.43 169.49C676.24 167.85 675.24 166.11 673.42 164.27C671.54 162.37 669.68 161.27 667.84 160.97C666.66 160.77 665.64 161.09 664.81 161.92C664.05 162.68 663.71 163.65 663.81 164.84C663.93 166.35 665.2 169.06 667.59 172.98C669.99 176.9 671.54 180.02 672.25 182.33C672.96 184.65 673.04 186.92 672.51 189.16C671.97 191.4 670.68 193.53 668.64 195.55C666.79 197.39 664.54 198.59 661.91 199.16C659.27 199.73 656.63 199.47 653.98 198.37C651.33 197.27 648.61 195.31 645.83 192.51C641.78 188.42 639.61 184.35 639.33 180.28C639.05 176.22 640.5 172.18 643.7 168.17V168.16Z" fill="white"/>
<path d="M672.73 222.02L703.15 199.55L695.13 188.69L701.32 184.11L722.81 213.2L716.62 217.78L708.61 206.94L678.19 229.41L672.73 222.02Z" fill="white"/>
<path d="M743.63 332.59L743.53 341.94C738.38 342.09 734.19 340.99 730.95 338.66C727.71 336.33 725.38 332.83 723.95 328.15C722.18 322.37 722.7 317.02 725.51 312.09C728.32 307.16 733.15 303.65 740 301.55C747.24 299.33 753.44 299.48 758.6 302C763.75 304.52 767.26 308.82 769.12 314.92C770.75 320.24 770.5 325.05 768.37 329.34C767.11 331.89 764.89 334.19 761.71 336.25L756.97 328.19C759.07 326.98 760.52 325.37 761.33 323.33C762.14 321.3 762.18 319.11 761.47 316.78C760.48 313.55 758.53 311.29 755.59 309.99C752.66 308.69 748.6 308.83 743.42 310.42C737.92 312.1 734.3 314.29 732.57 316.98C730.84 319.67 730.46 322.6 731.43 325.77C732.14 328.1 733.5 329.89 735.5 331.12C737.5 332.35 740.2 332.84 743.62 332.6L743.63 332.59Z" fill="white"/>
<path d="M732.82 357.43L777.87 350.9L779.19 360L761.46 362.57L764.04 380.39L781.77 377.82L783.09 386.92L738.04 393.45L736.72 384.36L756.42 381.51L753.84 363.69L734.14 366.54L732.82 357.45V357.43Z" fill="white"/>
<path d="M784.34 407.77L784.07 416.96L759.43 416.23C755.52 416.11 752.98 416.15 751.82 416.35C749.95 416.69 748.42 417.58 747.25 419.03C746.08 420.48 745.46 422.48 745.38 425.05C745.3 427.66 745.78 429.64 746.8 430.99C747.83 432.35 749.11 433.18 750.66 433.5C752.2 433.81 754.78 434.03 758.37 434.13L783.54 434.87L783.27 444.06L759.37 443.36C753.91 443.2 750.06 442.84 747.82 442.27C745.58 441.71 743.7 440.73 742.19 439.35C740.68 437.97 739.49 436.15 738.64 433.89C737.79 431.63 737.41 428.7 737.52 425.1C737.65 420.76 738.25 417.48 739.32 415.26C740.39 413.05 741.75 411.31 743.39 410.05C745.03 408.79 746.74 407.98 748.51 407.62C751.13 407.1 754.99 406.91 760.08 407.06L784.35 407.77H784.34Z" fill="white"/>
<path d="M736.21 455.99L780.85 464.89L777.07 483.86C776.12 488.63 775.03 492.02 773.79 494.02C772.55 496.02 770.79 497.47 768.48 498.36C766.17 499.25 763.7 499.43 761.06 498.91C757.71 498.24 755.14 496.71 753.35 494.3C751.56 491.89 750.77 488.68 750.98 484.65C749.45 486.37 747.88 487.73 746.27 488.73C744.66 489.73 741.9 490.96 738 492.42L728.2 496.13L730.35 485.35L741.36 480.77C745.29 479.15 747.79 478 748.87 477.33C749.94 476.66 750.74 475.88 751.27 474.99C751.79 474.1 752.26 472.62 752.68 470.55L753.04 468.72L734.4 465.01L736.2 456L736.21 455.99ZM760.18 470.14L758.85 476.81C757.99 481.13 757.63 483.87 757.78 485.02C757.93 486.17 758.39 487.14 759.16 487.92C759.93 488.71 760.99 489.24 762.33 489.5C763.83 489.8 765.12 489.64 766.21 489.02C767.29 488.4 768.1 487.39 768.64 485.97C768.89 485.26 769.38 483.08 770.1 479.42L771.5 472.39L760.17 470.13L760.18 470.14Z" fill="white"/>
<path d="M731.6 537.57L725.98 545.04C721.75 542.11 719.02 538.74 717.79 534.94C716.57 531.14 716.76 526.94 718.38 522.33C720.38 516.63 723.97 512.62 729.16 510.32C734.35 508.01 740.32 508.05 747.08 510.42C754.23 512.93 759.13 516.72 761.79 521.8C764.45 526.88 764.72 532.43 762.61 538.44C760.77 543.69 757.71 547.42 753.46 549.61C750.94 550.92 747.79 551.46 744.01 551.23L744.97 541.93C747.38 542.2 749.5 541.76 751.36 540.6C753.21 539.44 754.55 537.71 755.36 535.4C756.48 532.22 756.24 529.23 754.65 526.45C753.06 523.67 749.71 521.38 744.59 519.58C739.16 517.67 734.95 517.29 731.96 518.44C728.97 519.58 726.93 521.72 725.83 524.84C725.02 527.14 725.06 529.38 725.94 531.56C726.82 533.73 728.71 535.73 731.6 537.56V537.57Z" fill="white"/>
<path d="M708.02 551.59L749.06 571.28L745.09 579.57L728.94 571.82L721.15 588.06L737.3 595.81L733.33 604.1L692.29 584.41L696.27 576.12L714.21 584.73L722 568.49L704.06 559.88L708.03 551.59H708.02Z" fill="white"/>
<path d="M154.57 789.99V784.87H216.02V789.99H195.27C201.2 793.22 208.11 795.56 216.02 797C214.58 799.16 213.5 800.86 212.79 802.12C204.88 800.5 197.52 797.98 190.69 794.57L194.19 789.99H175.86L179.09 794.3C173.7 797.53 166.24 800.23 156.72 802.39C155.1 798.97 154.11 797.09 153.76 796.73C158.43 796.01 162.47 795.02 165.89 793.77C168.4 793.05 171.19 791.79 174.25 790H154.57V789.99ZM182.6 744.98V739.59H188.53V744.98H213.87V750.37H188.53V754.14H205.51V781.9H165.08V754.14H182.6V750.37H156.19V744.98H182.6ZM199.58 762.5V758.73H170.74V762.5H199.58ZM199.58 769.78V766.28H170.74V769.78H199.58ZM199.58 777.6V773.83H170.74V777.6H199.58Z" fill="#FCFAFA"/>
<path d="M294.2 762.5V740.4H300.94V762.5H327.89V768.43H308.21V793.23C308.21 793.77 308.39 794.22 308.75 794.58C308.93 794.76 310.1 794.85 312.25 794.85H317.37C319.88 794.85 321.32 794.67 321.68 794.31C322.22 793.41 322.76 791.26 323.3 787.84C325.28 788.56 327.43 789.37 329.77 790.27C328.69 793.87 327.7 796.38 326.81 797.82C325.91 799.07 325.19 799.79 324.65 799.98C323.57 800.34 321.59 800.52 318.72 800.52H313.33C307.76 800.52 304.52 800.16 303.63 799.44C302.19 798.54 301.47 796.65 301.47 793.78V768.44H293.11C292.57 775.99 291.58 781.65 290.15 785.42C288.89 789.02 286.92 791.98 284.22 794.31C281.88 796.64 277.12 799.34 269.93 802.4C269.21 800.42 268.04 798.36 266.43 796.2C271.64 794.76 275.5 793.06 278.02 791.08C280.18 789.64 281.97 787.67 283.41 785.15C284.66 783.17 285.57 780.66 286.11 777.6C286.47 775.62 286.74 772.57 286.92 768.44H268.05V762.51H294.19L294.2 762.5ZM288.27 757.11L283.15 760.61C280.81 757.02 277.67 752.97 273.72 748.48L278.57 744.98C281.62 748.21 284.86 752.26 288.27 757.11ZM310.37 760.88C310.01 760.34 309.38 759.71 308.48 758.99C307.58 758.27 306.68 757.64 305.78 757.1C309.01 753.33 312.52 748.93 316.29 743.89L321.95 748.74C318.35 752.34 314.49 756.38 310.36 760.87L310.37 760.88Z" fill="#FCFAFA"/>
<path d="M388.28 777.05C390.26 778.31 392.14 779.39 393.94 780.28L384.78 801.84L378.31 798.61C382.08 791.43 385.41 784.24 388.28 777.05ZM390.71 762.76L388.01 768.42L379.12 763.3L381.55 758.18C382.09 758.36 383.57 759.03 386 760.2C388.43 761.37 390 762.22 390.72 762.76H390.71ZM382.89 746.59L386.39 741.47C389.98 743.63 392.86 745.51 395.01 747.13L391.24 752.52C390.7 751.98 389.44 751 387.47 749.56C385.49 748.12 383.97 747.13 382.89 746.6V746.59ZM402.03 775.43H427.64L428.72 774.62L433.03 779.2C429.61 784.41 426.29 788.19 423.06 790.52C425.76 791.78 428.45 792.86 431.15 793.75C434.38 794.65 437.98 795.37 441.93 795.91C440.67 798.24 440.04 799.23 440.04 798.87L438.96 802.1C433.39 801.02 429.35 799.85 426.83 798.6C424.13 797.7 421.17 796.17 417.94 794.02C413.99 796.18 410.75 797.7 408.24 798.6C405.36 799.68 400.87 800.76 394.76 801.83C394.22 799.67 393.32 797.79 392.06 796.17C397.27 795.27 401.31 794.46 404.19 793.74C406.52 793.2 409.4 791.95 412.81 789.97C411.73 788.89 410.65 787.64 409.58 786.2C409.22 785.84 408.05 783.87 406.08 780.27H402.04V775.42L402.03 775.43ZM394.21 778.93V765.99H440.3V778.93H434.37V771.11H400.41V778.93H394.21ZM399.6 747.13V742.55H435.18V763.03H399.6V758.45H428.98V755.22H399.6V750.91H428.98V747.14H399.6V747.13ZM417.66 787.02C421.25 784.86 423.68 782.62 424.94 780.28H412.27C413.71 782.98 415.5 785.22 417.66 787.02Z" fill="#FCFAFA"/>
<path d="M505.81 755.76V802.39H499.34V768.43C497 772.2 495.39 774.63 494.49 775.71C494.49 775.53 493.32 773.65 490.99 770.05C494.94 763.58 497.73 758.55 499.35 754.96C500.79 751.91 502.58 746.52 504.74 738.79L511.48 741.49C510.94 742.75 509.77 745.8 507.98 750.65C507.62 751.55 506.9 753.26 505.82 755.77L505.81 755.76ZM509.85 757.11V751.45H555.4V757.11H509.85ZM515.24 802.39V780.29H549.74V802.12H542.46V799.16H521.71V802.39H515.24ZM516.05 766.54V761.15H548.66V766.54H516.05ZM516.05 776.24V770.58H548.66V776.24H516.05ZM516.32 747.67V742.01H548.66V747.67H516.32ZM542.46 793.76V785.67H521.71V793.76H542.46Z" fill="#FCFAFA"/>
<path d="M633.04 738.78L640.59 740.13L639.24 741.75C646.07 745.7 651.28 748.49 654.87 750.11C658.46 751.73 663.04 753.34 668.62 754.96C666.82 757.48 665.66 759.37 665.12 760.62C660.81 759.18 658.02 758.11 656.76 757.39C655.5 756.85 653.7 755.95 651.37 754.69V757.39H620.64V754.96C616.15 757.3 611.83 759.45 607.7 761.43C606.26 758.92 605.09 757.12 604.2 756.04C611.38 752.99 615.88 750.92 617.68 749.84C622.17 747.14 625.05 745.35 626.3 744.45C626.84 743.91 627.65 743.2 628.73 742.29C629.81 741.39 631.24 740.23 633.04 738.79V738.78ZM610.67 777.59V760.61H662.15V777.59H610.67ZM614.17 802.39V780.56H657.56V802.12H651.36V799.69H620.09V802.39H614.16H614.17ZM619.83 767.89L623.87 764.93H616.59V773.29H623.87C622.07 770.59 620.72 768.8 619.83 767.9V767.89ZM651.37 788.64V784.87H620.1V788.64H651.37ZM651.37 795.65V792.15H620.1V795.65H651.37ZM635.47 744.98C631.33 748.4 627.38 751.18 623.61 753.34H648.41C644.81 751.36 640.5 748.58 635.47 744.98ZM624.42 764.93L628.73 770.86L625.23 773.29H633.05V764.93H624.43H624.42ZM642.48 770.86L646.52 764.93H638.43V773.29H645.17L642.47 770.86H642.48ZM655.96 773.29V764.93H647.07L651.11 767.89C650.93 768.43 650.48 769.15 649.76 770.05C649.04 770.95 648.23 772.03 647.33 773.28H655.95L655.96 773.29Z" fill="#FCFAFA"/>
</g>
<defs>
<clipPath id="clip0_571_17558">
<rect width="831.57" height="830.82" fill="white"/>
</clipPath>
</defs>
</svg>
