<svg width="96" height="96" viewBox="0 0 96 96" fill="none" xmlns="http://www.w3.org/2000/svg">
<path d="M48.0345 18.8229C44.419 18.8229 40.9577 19.5761 37.8345 20.9351C37.0802 21.2651 36.559 21.9728 36.4674 22.7914C36.3763 23.6094 36.7283 24.4146 37.3915 24.9031C38.0547 25.3917 38.9279 25.4892 39.6827 25.1586C42.2407 24.0459 45.0591 23.4309 48.0345 23.4309C51.0098 23.4309 53.8282 24.0459 56.3862 25.1586C57.141 25.4892 58.0142 25.3917 58.6774 24.9031C59.3406 24.4145 59.6926 23.6093 59.6015 22.7914C59.5099 21.9728 58.9887 21.2651 58.2344 20.9351C55.1112 19.576 51.6499 18.8229 48.0344 18.8229H48.0345ZM26.5305 20.3587C26.2969 20.3587 26.0044 20.3485 25.6664 20.3828C25.0514 20.4455 24.6143 20.5918 24.3228 20.6711C20.74 21.6434 18.0828 24.9289 18.0828 28.8069C18.0828 30.1183 18.4551 31.314 18.9946 32.4311C15.6411 35.1053 13.4746 39.33 13.4746 44.1669C13.4746 44.7782 13.7173 45.3637 14.1496 45.796C14.5814 46.2283 15.1675 46.471 15.7787 46.471H37.2827C37.8934 46.471 38.4795 46.2284 38.9119 45.796C39.3436 45.3637 39.5863 44.7782 39.5863 44.1669C39.5863 39.3299 37.4204 35.1053 34.0663 32.4311C34.6063 31.3141 34.9786 30.1184 34.9786 28.8069C34.9786 24.9289 32.3215 21.6434 28.7386 20.6711C28.4467 20.5918 28.0095 20.4455 27.3945 20.3828C27.3367 20.3769 27.356 20.386 27.3227 20.3828C27.311 20.3818 27.3093 20.3844 27.2986 20.3828C27.0179 20.3555 26.756 20.3587 26.5304 20.3587H26.5305ZM69.5385 20.3587C69.313 20.3587 69.051 20.3555 68.7703 20.3828C68.7355 20.386 68.751 20.3753 68.6744 20.3828C68.0594 20.4455 67.6223 20.5918 67.3303 20.6711C63.7474 21.6434 61.0903 24.9289 61.0903 28.8069C61.0903 30.1183 61.4626 31.314 62.0026 32.4311C58.6485 35.1053 56.4826 39.33 56.4826 44.1669C56.4826 44.7782 56.7253 45.3637 57.1571 45.796C57.5894 46.2283 58.1755 46.471 58.7862 46.471H72.6102C73.2268 46.4796 73.8214 46.2407 74.2607 45.8078C74.7 45.375 74.947 44.7835 74.947 44.1669C74.947 43.5503 74.7 42.9589 74.2607 42.526C73.8214 42.0931 73.2268 41.8542 72.6102 41.8628H61.3785C62.0085 38.7551 63.7962 36.2517 66.1062 35.0469C66.7485 34.7159 67.198 34.1025 67.3207 33.3905C67.4434 32.678 67.2248 31.95 66.7303 31.4228C66.0869 30.736 65.6985 29.8376 65.6985 28.8069C65.6985 27.015 66.8916 25.5798 68.5303 25.1352C68.8635 25.0447 69.0622 24.9997 69.1303 24.9911C69.1453 24.9895 69.1383 24.9927 69.1544 24.9911C69.1806 24.9884 69.1726 24.9938 69.2026 24.9911H69.2262C69.2963 24.9841 69.3997 24.967 69.5385 24.967C69.7286 24.967 69.847 24.9831 69.9226 24.9911C69.9815 24.997 70.2006 25.0414 70.5462 25.1352C72.1849 25.5798 73.3784 27.015 73.3784 28.8069C73.3784 29.8376 72.99 30.736 72.3461 31.4228C71.8522 31.9499 71.6336 32.678 71.7563 33.3905C71.879 34.1025 72.3284 34.7159 72.9702 35.0469C75.8347 36.5406 77.9861 39.9771 77.9861 44.1669C77.9775 44.7835 78.2164 45.3782 78.6493 45.8174C79.0827 46.2562 79.6736 46.5037 80.2902 46.5037C80.9068 46.5037 81.4983 46.2562 81.9311 45.8174C82.364 45.3782 82.6029 44.7835 82.5943 44.1669C82.5943 39.3299 80.4279 35.1054 77.0743 32.4311C77.6138 31.3141 77.9861 30.1184 77.9861 28.8069C77.9861 24.9289 75.329 21.6434 71.7461 20.6711C71.4547 20.5918 71.0175 20.4455 70.4025 20.3828C70.0645 20.3486 69.772 20.3587 69.5384 20.3587L69.5385 20.3587ZM26.5305 24.967C26.6693 24.967 26.7727 24.9841 26.8428 24.9911H26.8664C26.9114 24.9949 26.9023 24.9879 26.9387 24.9911C27.0068 24.9997 27.2055 25.0447 27.5387 25.1352C29.1774 25.5799 30.3705 27.015 30.3705 28.8069C30.3705 29.8377 29.9821 30.736 29.3387 31.4228C28.8442 31.95 28.6256 32.678 28.7483 33.3905C28.871 34.1025 29.3205 34.7159 29.9628 35.0469C32.2728 36.2518 34.0605 38.7551 34.6905 41.8628H18.3705C19.001 38.7551 20.7882 36.2517 23.0988 35.0469C23.7406 34.7159 24.19 34.1025 24.3127 33.3905C24.4354 32.678 24.2168 31.95 23.7229 31.4228C23.079 30.736 22.6906 29.8376 22.6906 28.8069C22.6906 27.015 23.8841 25.5798 25.5228 25.1352C25.8684 25.0409 26.0875 24.997 26.1464 24.9911C26.222 24.9831 26.3404 24.967 26.5305 24.967H26.5305ZM25.7387 48.727C25.6584 48.7307 25.578 48.7388 25.4987 48.7511C24.8093 48.8256 24.1905 49.207 23.8134 49.7888C23.4362 50.3706 23.3414 51.0911 23.5546 51.7512C25.0691 56.8008 28.0766 61.1878 32.0988 64.3989C32.5761 64.7809 33.1857 64.9576 33.7932 64.8901C34.4007 64.8226 34.9568 64.5167 35.3388 64.0394C35.7207 63.5616 35.8975 62.9525 35.83 62.3445C35.7625 61.737 35.4561 61.1809 34.9788 60.7989C31.6852 58.1696 29.2129 54.5498 27.9705 50.4071C27.8339 49.9212 27.5414 49.4937 27.138 49.1905C26.7351 48.8868 26.2434 48.7239 25.7387 48.7271V48.727ZM70.2827 48.727C70.2024 48.7307 70.122 48.7388 70.0427 48.7511C69.5911 48.8047 69.1658 48.9906 68.8202 49.2852C68.4742 49.5798 68.2229 49.9699 68.0986 50.407C66.8563 54.5497 64.384 58.1696 61.0904 60.7987C60.613 61.1807 60.3066 61.7368 60.2391 62.3443C60.1716 62.9524 60.3484 63.5615 60.7304 64.0393C61.1123 64.5166 61.6684 64.8225 62.276 64.89C62.8835 64.9575 63.4931 64.7807 63.9704 64.3987C67.9925 61.1877 71 56.8007 72.5145 51.751C72.7481 51.0417 72.6232 50.2633 72.1797 49.6623C71.7361 49.0618 71.029 48.713 70.2827 48.727L70.2827 48.727ZM48.0341 51.0787C47.8091 51.0787 47.5466 51.0755 47.2658 51.1028C47.231 51.106 47.2471 51.0953 47.1699 51.1028C46.5549 51.1655 46.1178 51.3118 45.8258 51.3911C42.243 52.3634 39.5858 55.6489 39.5858 59.5269C39.5858 60.8383 39.9581 62.034 40.4981 63.1511C37.144 65.8253 34.9781 70.05 34.9781 74.8869C34.9781 75.4982 35.2208 76.0837 35.6531 76.516C36.0849 76.9484 36.671 77.191 37.2823 77.191H58.7863C59.3975 77.191 59.9836 76.9484 60.4154 76.516C60.8477 76.0837 61.0904 75.4982 61.0904 74.8869C61.0904 70.0499 58.9245 65.8253 55.5704 63.1511C56.1104 62.0341 56.4827 60.8384 56.4827 59.5269C56.4827 55.6489 53.8256 52.3634 50.2427 51.3911C49.9507 51.3118 49.5136 51.1655 48.8986 51.1028C48.5611 51.0685 48.2681 51.0787 48.0345 51.0787H48.0341ZM48.0341 55.687C48.2242 55.687 48.3426 55.7031 48.4182 55.7111C48.4771 55.717 48.6962 55.7615 49.0423 55.8552C50.681 56.2999 51.874 57.735 51.874 59.5269C51.874 60.5577 51.4856 61.456 50.8422 62.1428C50.3478 62.67 50.1292 63.398 50.2519 64.1105C50.3745 64.8225 50.824 65.4359 51.4658 65.7669C53.7764 66.9718 55.564 69.4751 56.1941 72.5828H39.8741C40.5041 69.4751 42.2918 66.9717 44.6023 65.7669C45.2441 65.4359 45.6936 64.8225 45.8163 64.1105C45.9389 63.398 45.7204 62.67 45.2259 62.1428C44.5825 61.456 44.1941 60.5576 44.1941 59.5269C44.1941 57.735 45.3872 56.2998 47.0259 55.8552C47.3591 55.7647 47.5578 55.7197 47.6259 55.7111C47.6409 55.7095 47.6339 55.7127 47.65 55.7111C47.6762 55.7084 47.6682 55.7138 47.6982 55.7111H47.7223C47.7919 55.7041 47.8953 55.687 48.0341 55.687H48.0341Z" fill="black"/>
</svg>
