<svg width="20" height="20" viewBox="0 0 20 20" fill="none" xmlns="http://www.w3.org/2000/svg">
<path d="M7.37428 9.58567C6.65363 8.78431 6.04889 7.915 5.56676 7H5.96624C6.41849 7.83058 6.97268 8.62081 7.62889 9.34758L8.0006 9.75926L8.37165 9.34698C9.49701 8.09658 10.3259 6.66587 10.8498 5.15648L11.0803 4.4925H10.3775H2.5V4H7.25H7.75V3.5V2.5H8.25V3.5V4H8.75H13.5V4.5H11.8025H11.4338L11.3248 4.85225C10.7997 6.55007 9.90833 8.1553 8.65676 9.55364L8.64394 9.56645L8.28829 9.92211L8.64605 10.2756L10.3211 11.9309L10.1357 12.4286L8.35355 10.6464L8 10.2929L7.64645 10.6464L4.25 14.0429L3.89456 13.6875L7.3536 10.276L7.69356 9.94071L7.37428 9.58567ZM12.59 14.25H12.243L12.1216 14.5751L11.403 16.5H10.9715L13.9715 8.5H14.7785L17.7785 16.5H17.346L16.6204 14.5738L16.4985 14.25H16.1525H12.59ZM14.8433 9.8273L14.375 8.57561L13.9067 9.8273L12.6917 13.0748L12.4391 13.75H13.16H15.59H16.3109L16.0583 13.0748L14.8433 9.8273Z" fill="black" fill-opacity="0.85" stroke="#373737"/>
</svg>
