<svg width="96" height="96" viewBox="0 0 96 96" fill="none" xmlns="http://www.w3.org/2000/svg">
<path fill-rule="evenodd" clip-rule="evenodd" d="M47.6793 45.2863C35.1678 45.2863 25 55.4616 25 67.9656C25 69.7763 25.2138 71.5378 25.6086 73.2231C25.6964 73.6255 25.9418 73.9753 26.2895 74.1949C26.6377 74.4146 27.0593 74.4858 27.4595 74.3915C27.8602 74.2978 28.2068 74.0471 28.4211 73.6962C28.6353 73.3447 28.6996 72.9221 28.5995 72.523C28.2566 71.0599 28.0718 69.5342 28.0718 67.9657C28.0718 57.1224 36.8275 48.3584 47.6791 48.3584C58.5219 48.3584 67.2864 57.1226 67.2864 67.9657C67.2864 69.5343 67.101 71.0573 66.7523 72.5161C66.6505 72.9152 66.7127 73.3379 66.9253 73.6904C67.138 74.0429 67.4835 74.2952 67.8837 74.3906C68.2839 74.4865 68.7055 74.4174 69.0548 74.1993C69.4036 73.9813 69.6505 73.632 69.74 73.2307C70.1439 71.5406 70.3582 69.7769 70.3582 67.9662C70.3582 55.4621 60.1834 45.2869 47.6789 45.2869L47.6793 45.2863Z" fill="black" stroke="black" stroke-width="2"/>
<path fill-rule="evenodd" clip-rule="evenodd" d="M47.6798 22C41.9198 22 37.2119 26.6988 37.2119 32.4603C37.2119 38.2219 41.9181 42.9281 47.6798 42.9281C53.4414 42.9281 58.1401 38.2203 58.1401 32.4603C58.1401 26.7003 53.4398 22 47.6798 22ZM47.6798 25.0717C51.7806 25.0717 55.0678 28.3589 55.0678 32.4597C55.0678 36.5606 51.7791 39.8559 47.6798 39.8559C43.5799 39.8559 40.2836 36.5596 40.2836 32.4597C40.2836 28.3604 43.5782 25.0717 47.6798 25.0717Z" fill="black" stroke="black" stroke-width="2"/>
</svg>
